<svg xmlns="http://www.w3.org/2000/svg" viewBox="0 0 512 512">
  <defs>
    <radialGradient id="bgGrad" cx="50%" cy="50%" r="75%">
      <stop offset="0%" stop-color="#2d1810"/>
      <stop offset="60%" stop-color="#1a0d0a"/>
      <stop offset="100%" stop-color="#0d0605"/>
    </radialGradient>

    <linearGradient id="flameOuter" x1="50%" y1="0%" x2="50%" y2="100%">
      <stop offset="0%" stop-color="#FF8A50"/>
      <stop offset="40%" stop-color="#FF4500"/>
      <stop offset="100%" stop-color="#B30D00"/>
    </linearGradient>

    <linearGradient id="flameMid" x1="50%" y1="20%" x2="50%" y2="100%">
      <stop offset="0%" stop-color="#FFB627"/>
      <stop offset="55%" stop-color="#FF6B00"/>
      <stop offset="100%" stop-color="#E63900"/>
    </linearGradient>

    <radialGradient id="flameCore" cx="50%" cy="70%" r="50%">
      <stop offset="0%" stop-color="#FFFFFF"/>
      <stop offset="40%" stop-color="#FFEC8B"/>
      <stop offset="100%" stop-color="#FFB627" stop-opacity="0"/>
    </radialGradient>

    <radialGradient id="glowGrad" cx="50%" cy="55%" r="50%">
      <stop offset="0%" stop-color="#FF6B00" stop-opacity="0.6"/>
      <stop offset="60%" stop-color="#FF6B00" stop-opacity="0.15"/>
      <stop offset="100%" stop-color="#FF6B00" stop-opacity="0"/>
    </radialGradient>

    <linearGradient id="pinGrad" x1="0%" y1="0%" x2="100%" y2="100%">
      <stop offset="0%" stop-color="#FF6B35"/>
      <stop offset="100%" stop-color="#C9302C"/>
    </linearGradient>
  </defs>

  <rect width="512" height="512" fill="url(#bgGrad)"/>

  <ellipse cx="256" cy="280" rx="200" ry="220" fill="url(#glowGrad)"/>

  <g transform="translate(256 270)">
    <ellipse cx="0" cy="170" rx="40" ry="8" fill="#000" opacity="0.5"/>

    <path d="
      M 0 -135
      C 70 -135, 115 -85, 115 -25
      C 115 35, 65 90, 0 175
      C -65 90, -115 35, -115 -25
      C -115 -85, -70 -135, 0 -135
      Z"
      fill="url(#pinGrad)"
      stroke="#7a1a0e"
      stroke-width="6"/>

    <path d="
      M 0 -135
      C 70 -135, 115 -85, 115 -25
      C 115 35, 65 90, 0 175
      C -65 90, -115 35, -115 -25
      C -115 -85, -70 -135, 0 -135
      Z"
      fill="none"
      stroke="#FFFFFF"
      stroke-width="2"
      opacity="0.2"/>
  </g>

  <g transform="translate(256 275)">
    <path d="
      M 0 -100
      C -10 -85, -25 -75, -40 -50
      C -58 -20, -68 10, -60 45
      C -52 75, -30 90, -15 85
      C -22 78, -25 65, -22 50
      C -18 30, -8 18, 0 5
      C 8 18, 18 30, 22 50
      C 25 65, 22 78, 15 85
      C 30 90, 52 75, 60 45
      C 68 10, 58 -20, 40 -50
      C 25 -75, 10 -85, 0 -100
      Z"
      fill="url(#flameOuter)"/>

    <path d="
      M 0 -65
      C -8 -50, -20 -40, -28 -20
      C -38 5, -42 25, -35 50
      C -28 70, -15 78, -5 72
      C -10 65, -12 55, -10 42
      C -7 28, -2 18, 0 12
      C 2 18, 7 28, 10 42
      C 12 55, 10 65, 5 72
      C 15 78, 28 70, 35 50
      C 42 25, 38 5, 28 -20
      C 20 -40, 8 -50, 0 -65
      Z"
      fill="url(#flameMid)"/>

    <ellipse cx="0" cy="35" rx="14" ry="28" fill="url(#flameCore)"/>

    <ellipse cx="0" cy="-55" rx="6" ry="15" fill="#FFFFFF" opacity="0.4"/>
  </g>

  <g>
    <circle cx="400" cy="160" r="5" fill="#FFB627"/>
    <circle cx="400" cy="160" r="3" fill="#FFFFFF" opacity="0.8"/>
    <circle cx="115" cy="180" r="4" fill="#FFB627"/>
    <circle cx="115" cy="180" r="2" fill="#FFFFFF" opacity="0.8"/>
    <circle cx="420" cy="280" r="3" fill="#FF6B35"/>
    <circle cx="100" cy="320" r="3.5" fill="#FFB627" opacity="0.9"/>
    <circle cx="360" cy="90" r="2" fill="#FFE066"/>
    <circle cx="140" cy="100" r="2.5" fill="#FFE066"/>
  </g>
</svg>
